<?xml version="1.0" standalone="no"?>
<!DOCTYPE svg PUBLIC "-//W3C//DTD SVG 20010904//EN"
 "http://www.w3.org/TR/2001/REC-SVG-20010904/DTD/svg10.dtd">
<svg version="1.0" xmlns="http://www.w3.org/2000/svg"
 width="2000.000000pt" height="2000.000000pt" viewBox="0 0 2000.000000 2000.000000"
 preserveAspectRatio="xMidYMid meet">

<g transform="translate(0.000000,2000.000000) scale(0.100000,-0.100000)"
fill="#000000" stroke="none">
<path d="M14910 15386 c0 -2 8 -10 18 -17 15 -13 16 -12 3 4 -13 16 -21 21
-21 13z"/>
<path d="M15080 15216 c0 -2 7 -7 16 -10 8 -3 12 -2 9 4 -6 10 -25 14 -25 6z"/>
<path d="M15150 15155 c13 -14 26 -25 28 -25 3 0 -5 11 -18 25 -13 14 -26 25
-28 25 -3 0 5 -11 18 -25z"/>
<path d="M15375 14920 c10 -11 20 -20 23 -20 3 0 -3 9 -13 20 -10 11 -20 20
-23 20 -3 0 3 -9 13 -20z"/>
<path d="M15450 14836 c0 -2 8 -10 18 -17 15 -13 16 -12 3 4 -13 16 -21 21
-21 13z"/>
<path d="M15526 14747 c3 -10 9 -15 12 -12 3 3 0 11 -7 18 -10 9 -11 8 -5 -6z"/>
<path d="M15570 14696 c0 -2 8 -10 18 -17 15 -13 16 -12 3 4 -13 16 -21 21
-21 13z"/>
<path d="M15594 14648 c-4 -7 -4 -10 1 -6 4 4 15 2 24 -5 14 -11 14 -10 2 6
-16 20 -18 21 -27 5z"/>
<path d="M15664 14568 c-4 -7 -4 -10 1 -6 4 4 15 2 24 -5 14 -11 14 -10 2 6
-16 20 -18 21 -27 5z"/>
<path d="M15694 14529 c-4 -7 -3 -9 4 -5 6 3 15 -2 21 -11 6 -10 11 -13 11 -7
0 20 -27 37 -36 23z"/>
<path d="M15775 14429 c-4 -6 -4 -13 -1 -16 3 -4 6 -1 6 6 0 7 5 9 12 5 7 -4
8 -3 4 4 -9 15 -13 15 -21 1z"/>
<path d="M15810 14390 c0 -5 5 -10 11 -10 5 0 7 5 4 10 -3 6 -8 10 -11 10 -2
0 -4 -4 -4 -10z"/>
<path d="M15760 14375 c0 -5 5 -17 10 -25 5 -8 10 -10 10 -5 0 6 -5 17 -10 25
-5 8 -10 11 -10 5z"/>
<path d="M15845 14344 c3 -30 16 -54 26 -48 13 8 11 16 -10 43 -15 20 -18 20
-16 5z"/>
<path d="M15854 14260 c0 -13 4 -16 10 -10 7 7 7 13 0 20 -6 6 -10 3 -10 -10z"/>
<path d="M15910 14261 c5 -11 15 -23 21 -27 6 -3 3 5 -6 20 -20 30 -30 35 -15
7z"/>
<path d="M16005 14111 c2 -38 6 -43 21 -27 9 10 7 18 -6 36 l-17 22 2 -31z"/>
<path d="M16029 14043 c6 -12 16 -25 21 -28 17 -11 11 5 -11 28 l-21 22 11
-22z"/>
<path d="M16050 14056 c0 -2 8 -10 18 -17 15 -13 16 -12 3 4 -13 16 -21 21
-21 13z"/>
<path d="M16107 13940 c-9 -11 -12 -20 -7 -20 6 0 13 7 16 15 6 14 8 13 21 -2
13 -16 13 -16 3 5 -13 27 -12 27 -33 2z"/>
<path d="M16167 13829 c4 -13 8 -18 11 -10 2 7 -1 18 -6 23 -8 8 -9 4 -5 -13z"/>
<path d="M16200 13821 c0 -6 4 -13 10 -16 6 -3 7 1 4 9 -7 18 -14 21 -14 7z"/>
<path d="M16180 13791 c0 -5 7 -15 17 -22 15 -13 15 -12 4 9 -12 23 -21 28
-21 13z"/>
<path d="M16220 13786 c0 -2 8 -10 18 -17 15 -13 16 -12 3 4 -13 16 -21 21
-21 13z"/>
<path d="M16256 13722 c-8 -13 0 -46 12 -50 8 -2 10 3 5 14 -5 12 -3 15 6 9
10 -6 11 -3 2 14 -13 23 -17 25 -25 13z"/>
<path d="M16290 13630 c6 -11 13 -20 16 -20 2 0 0 9 -6 20 -6 11 -13 20 -16
20 -2 0 0 -9 6 -20z"/>
<path d="M16323 13612 c0 -11 5 -18 9 -16 12 8 9 -11 -4 -24 -8 -8 -8 -12 -1
-12 19 0 24 31 9 52 l-15 21 2 -21z"/>
<path d="M16341 13534 c0 -11 3 -14 6 -6 3 7 2 16 -1 19 -3 4 -6 -2 -5 -13z"/>
<path d="M16370 13530 c0 -5 5 -10 11 -10 5 0 7 5 4 10 -3 6 -8 10 -11 10 -2
0 -4 -4 -4 -10z"/>
<path d="M16405 13460 c-3 -10 0 -31 8 -46 l15 -28 0 27 c0 16 -5 24 -11 20
-6 -4 -8 4 -3 21 7 30 0 36 -9 6z"/>
<path d="M16443 13410 c2 -8 0 -23 -5 -32 -5 -10 -6 -18 -4 -18 13 0 24 37 15
51 -9 12 -10 12 -6 -1z"/>
<path d="M16487 13306 c-4 -10 0 -27 8 -40 9 -13 13 -31 9 -42 -9 -24 0 -16
16 15 10 19 10 22 -1 16 -8 -6 -11 -4 -7 6 3 8 0 25 -7 38 -10 20 -13 21 -18
7z m17 -22 c3 -8 2 -12 -4 -9 -6 3 -10 10 -10 16 0 14 7 11 14 -7z"/>
<path d="M16520 13203 c0 -7 2 -13 4 -13 2 0 13 -3 23 -7 15 -6 16 -4 6 9 -7
8 -11 17 -8 20 3 2 -2 5 -10 5 -8 0 -15 -6 -15 -14z"/>
<path d="M16569 13154 c-1 -5 -3 -28 -3 -51 l-2 -43 17 27 c14 21 15 31 7 47
-14 27 -18 31 -19 20z"/>
<path d="M16576 13054 c-3 -8 2 -11 15 -9 11 2 22 -2 26 -10 3 -8 9 -15 15
-15 5 0 1 11 -9 23 -19 26 -39 31 -47 11z"/>
<path d="M16643 12981 c0 -21 3 -27 9 -19 5 9 7 5 7 -12 -1 -14 2 -34 5 -45 7
-18 6 -18 -6 -4 -11 14 -13 8 -14 -45 -1 -46 0 -55 7 -37 5 13 7 32 4 42 -4
11 -2 19 4 19 5 0 11 -7 13 -15 2 -10 7 -7 15 10 7 17 8 23 0 18 -7 -4 -8 0
-4 11 4 10 3 15 -3 11 -6 -4 -10 6 -10 22 -1 15 -7 39 -14 51 -13 24 -13 24
-13 -7z"/>
<path d="M16690 12861 c0 -6 5 -13 10 -16 6 -3 10 -15 10 -25 0 -10 6 -21 13
-23 9 -4 8 -6 -2 -6 -11 -1 -11 -4 -1 -16 7 -8 10 -21 7 -30 -4 -8 -2 -17 3
-20 5 -3 10 5 12 17 2 13 4 -6 3 -40 0 -58 -1 -61 -11 -36 -7 16 -10 34 -7 41
3 7 0 13 -6 13 -6 0 -11 11 -11 24 0 14 -4 27 -9 30 -5 4 -7 -3 -4 -15 5 -18
3 -20 -18 -14 -17 4 -20 3 -10 -3 10 -7 11 -18 6 -38 -5 -16 -9 -41 -10 -57
-2 -15 -9 -35 -16 -44 -10 -12 -10 -14 -1 -9 8 5 12 0 12 -13 0 -13 7 -21 16
-21 13 0 14 3 4 15 -13 16 -7 45 10 45 7 0 9 -8 5 -21 -5 -14 -3 -19 3 -15 6
4 9 32 6 69 l-4 62 15 -34 c17 -38 18 -44 7 -37 -4 2 -6 -11 -4 -31 3 -23 0
-38 -9 -44 -10 -6 -11 -9 -1 -9 19 0 14 -34 -8 -48 -11 -7 -20 -17 -20 -23 0
-6 9 -9 20 -6 18 5 24 -2 18 -20 -2 -5 -6 -7 -10 -5 -5 1 -8 -7 -8 -18 0 -11
5 -20 10 -20 6 0 10 -63 10 -170 0 -144 -2 -170 -15 -170 -11 0 -15 -11 -15
-40 0 -22 -4 -40 -10 -40 -6 0 -10 -33 -10 -80 0 -64 -3 -80 -15 -80 -13 0
-15 -24 -15 -160 0 -136 -2 -160 -15 -160 -11 0 -15 -11 -15 -40 0 -22 -4 -40
-10 -40 -5 0 -10 -18 -10 -40 0 -29 -4 -40 -15 -40 -12 0 -15 -20 -15 -120 l0
-120 -25 0 c-22 0 -25 -4 -25 -40 0 -29 -4 -40 -15 -40 -12 0 -15 -20 -15
-120 l0 -120 -25 0 c-22 0 -25 -4 -25 -40 0 -29 -4 -40 -15 -40 -12 0 -15 -20
-15 -120 l0 -120 -25 0 c-22 0 -25 -4 -25 -40 0 -29 -4 -40 -15 -40 -12 0 -15
-16 -15 -80 0 -64 -3 -80 -15 -80 -11 0 -15 -11 -15 -40 0 -36 -2 -40 -25 -40
-25 0 -25 -1 -25 -80 l0 -80 -40 0 -40 0 0 -120 0 -120 -25 0 c-22 0 -25 -4
-25 -40 0 -29 -4 -40 -15 -40 -12 0 -15 -16 -15 -80 l0 -80 -40 0 -40 0 0 -80
0 -80 -40 0 -40 0 0 -80 c0 -79 0 -80 -25 -80 -22 0 -25 -4 -25 -40 0 -29 -4
-40 -15 -40 -11 0 -15 -11 -15 -40 0 -29 -4 -40 -15 -40 -11 0 -15 -11 -15
-40 0 -36 -2 -40 -25 -40 -22 0 -25 -4 -25 -40 0 -29 -4 -40 -15 -40 -11 0
-15 -11 -15 -40 0 -36 -2 -40 -25 -40 -22 0 -25 -4 -25 -40 0 -29 -4 -40 -15
-40 -11 0 -15 -11 -15 -40 0 -36 -2 -40 -25 -40 -22 0 -25 -4 -25 -40 l0 -40
-40 0 -40 0 0 -80 0 -80 -40 0 -40 0 0 -80 0 -80 -40 0 -40 0 0 -80 0 -80 -40
0 -40 0 0 -40 0 -40 -40 0 -40 0 0 -80 0 -80 -40 0 -40 0 0 -40 0 -40 -40 0
-40 0 0 -80 0 -80 -40 0 -40 0 0 -40 0 -40 -40 0 -40 0 0 -80 0 -80 -40 0 -40
0 0 -40 0 -40 -40 0 -40 0 0 -40 0 -40 -40 0 -40 0 0 -80 0 -80 -40 0 -40 0 0
-40 0 -40 -40 0 -40 0 0 -40 0 -40 -40 0 c-36 0 -40 -2 -40 -25 0 -21 -57 -95
-74 -95 -2 0 -6 10 -9 22 -4 12 -9 19 -12 16 -4 -3 -2 -15 4 -26 8 -15 7 -23
-3 -31 -11 -9 -20 -6 -40 14 -15 15 -23 31 -20 37 4 6 2 8 -4 4 -7 -4 -9 7 -7
35 4 40 4 40 -14 20 -10 -11 -21 -18 -25 -14 -3 3 1 14 9 23 13 14 11 16 -18
16 -21 0 -31 4 -29 13 1 7 -2 10 -8 6 -6 -4 -5 -13 3 -25 12 -21 23 -25 30
-12 2 4 2 1 0 -6 -1 -8 35 -58 81 -112 47 -55 89 -107 94 -117 6 -10 14 -14
19 -9 4 5 2 11 -4 13 -7 3 -13 11 -13 19 0 8 -14 27 -32 43 -25 22 -28 30 -17
36 8 5 11 5 7 0 -8 -9 40 -50 49 -41 3 3 0 13 -8 22 -12 15 -11 16 9 10 17 -6
21 -4 16 8 -3 9 -2 16 4 16 5 0 9 -23 9 -51 -1 -33 -3 -45 -8 -33 -7 18 -8 18
-8 1 -1 -10 4 -28 10 -39 8 -15 8 -19 0 -14 -32 20 22 -61 68 -103 14 -13 19
-20 11 -16 -8 5 -3 -5 11 -21 14 -16 50 -64 79 -106 29 -43 57 -75 61 -72 5 3
6 -3 2 -12 -4 -12 -3 -15 6 -10 8 6 11 2 9 -10 -2 -11 2 -18 9 -17 7 2 10 -3
7 -10 -2 -7 10 -28 27 -47 17 -19 26 -27 19 -18 -9 13 -9 21 0 35 10 16 10 16
5 -4 -3 -12 -1 -24 4 -27 6 -4 8 -13 4 -22 -3 -8 1 -22 9 -32 7 -9 20 -29 27
-44 8 -15 18 -25 22 -22 5 3 6 -2 3 -10 -3 -9 -1 -16 5 -16 6 0 11 -5 11 -11
0 -7 14 -35 32 -63 17 -28 40 -67 51 -86 28 -48 207 -407 207 -413 0 -3 18
-44 39 -90 22 -47 65 -155 97 -242 l58 -157 40 44 c21 23 61 66 88 94 34 37
46 57 42 70 -4 13 -3 15 3 6 7 -9 31 12 91 82 78 89 97 116 70 100 -7 -4 -8
-3 -4 5 4 6 11 9 16 6 11 -7 71 66 64 77 -3 5 -1 7 4 6 19 -6 186 217 176 234
-4 6 -3 8 4 5 12 -8 88 92 83 112 -1 7 2 10 7 7 5 -3 21 12 36 34 28 42 32 55
16 45 -6 -3 -7 1 -3 10 4 12 8 13 13 5 4 -7 29 21 65 73 35 53 54 90 50 98 -5
7 -4 10 2 6 6 -4 24 15 40 41 45 71 46 72 32 88 -9 10 -9 18 -2 25 8 8 11 7
10 -4 -1 -9 3 -16 8 -16 6 0 9 7 9 14 -1 8 1 13 5 11 11 -7 103 153 95 166 -4
6 -3 8 3 5 14 -9 117 179 107 195 -4 7 -3 10 1 5 11 -9 67 93 60 111 -2 7 -1
10 4 7 17 -10 177 337 165 357 -4 6 -3 8 3 5 6 -4 17 10 26 31 200 485 295
776 397 1207 82 348 151 774 154 951 0 45 4 80 7 78 13 -8 31 365 30 651 0
381 -19 665 -67 1000 -8 55 -20 137 -26 182 -6 45 -15 80 -20 77 -4 -3 -5 9
-1 27 4 22 3 30 -5 26 -6 -5 -8 0 -5 12 5 20 -17 142 -46 256 -10 39 -27 108
-37 153 -13 61 -20 79 -26 65 -6 -12 -7 -9 -3 10 6 31 5 35 -81 322 -85 282
-107 338 -122 323 -9 -9 -12 -8 -12 4 0 9 5 18 11 20 7 2 7 11 -1 28 -9 23
-10 23 -6 3 2 -13 -1 -23 -6 -23 -6 0 -8 13 -5 33 3 19 -1 43 -9 57 -7 14 -13
19 -14 12 0 -7 -5 -10 -11 -6 -7 4 -7 10 -1 16 11 11 4 50 -8 43 -10 -6 -40
34 -40 53 0 11 3 12 14 3 11 -9 11 -3 -1 34 -9 25 -19 42 -24 40 -4 -3 -7 3
-6 13 1 23 -23 82 -34 82 -5 0 -9 -4 -9 -9z m140 -313 c0 -5 -4 -8 -10 -8 -5
0 -10 10 -10 23 0 18 2 19 10 7 5 -8 10 -18 10 -22z m3 -89 c8 -29 -12 -61
-28 -45 -7 6 -10 17 -7 25 4 11 7 10 13 -5 6 -16 8 -15 8 8 1 14 -5 29 -11 31
-8 4 -7 6 3 6 9 1 19 -9 22 -20z m40 -38 c4 -15 1 -18 -12 -14 -13 5 -12 2 4
-17 l20 -23 -27 17 c-23 15 -25 20 -15 37 15 24 23 24 30 0z m-1 -96 c-3 -5
-7 -4 -10 3 -2 7 -8 10 -13 6 -5 -3 -9 4 -9 15 0 20 1 20 18 4 11 -10 16 -22
14 -28z m39 -20 c25 -67 18 -67 -13 1 -15 30 -22 54 -16 52 6 -2 19 -26 29
-53z m-77 -5 c5 -8 6 -11 1 -7 -6 5 -14 -6 -21 -25 l-12 -33 0 35 c0 45 9 81
16 60 3 -8 10 -22 16 -30z m59 -50 c-3 -12 -8 -19 -11 -16 -5 6 5 36 12 36 2
0 2 -9 -1 -20z m20 -30 c3 -11 1 -23 -4 -26 -5 -3 -9 6 -9 20 0 31 6 34 13 6z
m31 -25 c5 -19 4 -26 -2 -20 -5 6 -13 24 -16 40 -5 19 -4 26 2 20 5 -5 13 -23
16 -40z m-50 -10 c5 -22 4 -26 -4 -15 -5 8 -10 24 -10 34 0 26 6 18 14 -19z
m-74 -17 c0 -5 -4 -8 -10 -8 -5 0 -10 10 -10 23 0 18 2 19 10 7 5 -8 10 -18
10 -22z m154 -83 c5 -22 4 -26 -4 -15 -5 8 -10 24 -10 34 0 26 6 18 14 -19z
m31 -90 c6 -30 6 -30 -10 4 -17 38 -19 49 -6 36 5 -6 12 -23 16 -40z m-16 -57
c-1 -18 -2 -19 -6 -5 -2 9 -9 15 -14 12 -5 -4 -9 -1 -9 4 0 6 7 11 15 11 9 0
15 -9 14 -22z m41 -13 c0 -5 -5 -3 -10 5 -5 8 -10 20 -10 25 0 6 5 3 10 -5 5
-8 10 -19 10 -25z m-200 -45 c0 -29 -4 -40 -15 -40 -11 0 -15 11 -15 40 0 29
4 40 15 40 11 0 15 -11 15 -40z m227 -180 c-1 -22 -4 -34 -8 -27 -7 11 -1 67
7 67 1 0 2 -18 1 -40z m30 -42 c-3 -8 -6 -5 -6 6 -1 11 2 17 5 13 3 -3 4 -12
1 -19z m-40 -50 c-3 -8 -6 -5 -6 6 -1 11 2 17 5 13 3 -3 4 -12 1 -19z m-297
-208 c0 -29 -4 -40 -15 -40 -11 0 -15 11 -15 40 0 29 4 40 15 40 11 0 15 -11
15 -40z m397 -2 c-3 -8 -6 -5 -6 6 -1 11 2 17 5 13 3 -3 4 -12 1 -19z m3 -29
c0 8 3 12 6 8 3 -3 1 -14 -5 -24 -8 -14 -10 -14 -11 -3 0 13 -1 13 -10 0 -11
-17 -13 -9 -4 15 5 13 8 14 15 3 7 -11 9 -10 9 1z m-13 -161 c-3 -7 -5 -2 -5
12 0 14 2 19 5 13 2 -7 2 -19 0 -25z m-467 -208 c0 -29 -4 -40 -15 -40 -11 0
-15 11 -15 40 0 29 4 40 15 40 11 0 15 -11 15 -40z m547 -52 c-3 -7 -5 -2 -5
12 0 14 2 19 5 13 2 -7 2 -19 0 -25z m-627 -268 c0 -29 -4 -40 -15 -40 -11 0
-15 11 -15 40 0 29 4 40 15 40 11 0 15 -11 15 -40z m667 -112 c-3 -8 -6 -5 -6
6 -1 11 2 17 5 13 3 -3 4 -12 1 -19z m-1067 -1088 c0 -29 -4 -40 -15 -40 -11
0 -15 11 -15 40 0 29 4 40 15 40 11 0 15 -11 15 -40z m-240 -560 c0 -29 -4
-40 -15 -40 -11 0 -15 11 -15 40 0 29 4 40 15 40 11 0 15 -11 15 -40z m-80
-160 c0 -29 -4 -40 -15 -40 -11 0 -15 11 -15 40 0 29 4 40 15 40 11 0 15 -11
15 -40z m-1640 -1940 c0 -5 -4 -10 -10 -10 -5 0 -10 5 -10 10 0 6 5 10 10 10
6 0 10 -4 10 -10z m240 -274 c-1 -28 -16 -33 -32 -11 -17 22 -16 23 7 23 14 0
25 -6 25 -12z m83 -81 c-3 -9 -8 -14 -10 -11 -3 3 -2 9 2 15 9 16 15 13 8 -4z
m-4 -30 c7 3 8 0 5 -9 -3 -9 -9 -16 -11 -16 -9 0 -32 34 -32 45 0 6 6 2 14 -9
7 -10 18 -15 24 -11z m78 -67 c-3 -8 -6 -5 -6 6 -1 11 2 17 5 13 3 -3 4 -12 1
-19z m-27 -19 c0 -6 -4 -7 -10 -4 -5 3 -10 11 -10 16 0 6 5 7 10 4 6 -3 10
-11 10 -16z m192 -243 c2 -19 0 -32 -4 -30 -8 5 -12 64 -4 64 2 0 6 -15 8 -34z
m-32 -4 c0 -15 -2 -15 -10 -2 -13 20 -13 33 0 25 6 -3 10 -14 10 -23z m1047
-494 c-3 -8 -6 -5 -6 6 -1 11 2 17 5 13 3 -3 4 -12 1 -19z"/>
<path d="M16683 12821 c4 -18 3 -20 -9 -10 -11 9 -14 8 -14 -5 0 -9 8 -16 20
-16 22 0 28 34 8 46 -8 5 -9 0 -5 -15z"/>
<path d="M16610 12400 c0 -64 3 -80 15 -80 12 0 15 16 15 80 0 64 -3 80 -15
80 -12 0 -15 -16 -15 -80z"/>
<path d="M16530 11720 c0 -29 4 -40 15 -40 11 0 15 11 15 40 0 29 -4 40 -15
40 -11 0 -15 -11 -15 -40z"/>
<path d="M16450 11320 c0 -29 4 -40 15 -40 11 0 15 11 15 40 0 29 -4 40 -15
40 -11 0 -15 -11 -15 -40z"/>
<path d="M16290 10680 c0 -29 4 -40 15 -40 11 0 15 11 15 40 0 29 -4 40 -15
40 -11 0 -15 -11 -15 -40z"/>
<path d="M16210 10360 c0 -29 4 -40 15 -40 11 0 15 11 15 40 0 29 -4 40 -15
40 -11 0 -15 -11 -15 -40z"/>
<path d="M16130 10120 c0 -29 4 -40 15 -40 11 0 15 11 15 40 0 29 -4 40 -15
40 -11 0 -15 -11 -15 -40z"/>
<path d="M15810 9320 c0 -29 4 -40 15 -40 11 0 15 11 15 40 0 29 -4 40 -15 40
-11 0 -15 -11 -15 -40z"/>
<path d="M13410 7566 c0 -2 8 -10 18 -17 15 -13 16 -12 3 4 -13 16 -21 21 -21
13z"/>
<path d="M13580 7426 c0 -2 8 -10 18 -17 15 -13 16 -12 3 4 -13 16 -21 21 -21
13z"/>
<path d="M13730 7331 c0 -5 7 -12 16 -15 14 -5 15 -4 4 9 -14 17 -20 19 -20 6z"/>
<path d="M13729 7297 c19 -21 36 -37 38 -37 9 0 -23 38 -45 54 -21 15 -20 12
7 -17z"/>
<path d="M13823 7208 c24 -33 32 -36 17 -8 -6 11 -9 24 -6 28 2 4 -4 8 -13 8
-17 0 -17 -2 2 -28z"/>
<path d="M13985 7050 c73 -79 95 -95 95 -69 0 5 -4 8 -9 5 -4 -3 -18 5 -30 18
l-22 24 26 0 c20 0 25 -4 20 -17 -5 -12 -3 -13 6 -4 18 18 1 33 -31 29 -32 -4
-56 16 -44 35 5 8 3 9 -5 5 -7 -5 -22 0 -34 10 -12 10 1 -6 28 -36z"/>
<path d="M14076 6948 c3 -5 10 -6 15 -3 13 9 11 12 -6 12 -8 0 -12 -4 -9 -9z"/>
<path d="M14110 6944 c-11 -12 -10 -18 5 -32 18 -16 18 -16 6 1 -11 14 -11 20
-1 32 7 8 10 15 7 15 -2 0 -10 -7 -17 -16z"/>
<path d="M14140 6945 c-10 -12 -10 -18 -2 -26 7 -5 10 -6 7 -3 -2 4 0 15 6 25
12 23 6 25 -11 4z"/>
<path d="M14280 6870 c0 -5 5 -10 10 -10 6 0 10 5 10 10 0 6 -4 10 -10 10 -5
0 -10 -4 -10 -10z"/>
<path d="M14320 6870 c0 -5 5 -10 10 -10 6 0 10 5 10 10 0 6 -4 10 -10 10 -5
0 -10 -4 -10 -10z"/>
<path d="M14267 6793 c-4 -6 2 -18 13 -28 23 -21 27 -8 7 20 -8 11 -16 14 -20
8z"/>
</g>
</svg>
